<svg width="24" height="24" viewBox="0 0 24 24" fill="none" xmlns="http://www.w3.org/2000/svg">
<path d="M11.0659 16.0731C11.6127 16.5078 12.3871 16.5075 12.9336 16.0724L19.36 10.9565L19.5182 10.8312C20.2755 10.2315 20.2768 9.08264 19.5207 8.48129L12.9337 3.24257C12.3871 2.80788 11.6129 2.80788 11.0663 3.24257L4.47483 8.48489C3.72015 9.08509 3.71966 10.2312 4.47383 10.8321L4.63 10.9565L11.0659 16.0731Z" fill="#F8991C"/>
<path opacity="0.3" fill-rule="evenodd" clip-rule="evenodd" d="M12.9235 18.6706C12.377 19.1052 11.6029 19.1053 11.0564 18.6707L5.33835 14.1249C4.94311 13.8107 4.36728 13.8801 4.05812 14.2793C3.75043 14.6767 3.82487 15.2485 4.22404 15.5538L11.0873 20.8032C11.6251 21.2145 12.3718 21.2146 12.9096 20.8033L19.7696 15.5585C20.1722 15.2507 20.247 14.674 19.9364 14.2736C19.6247 13.8718 19.0448 13.8022 18.6468 14.1187L12.9235 18.6706Z" fill="#F8991C"/>
</svg>
