<svg width="24" height="24" viewBox="0 0 24 24" fill="none" xmlns="http://www.w3.org/2000/svg">
<path fill-rule="evenodd" clip-rule="evenodd" d="M5 3C4.44772 3 4 3.44772 4 4V20C4 20.5523 4.44772 21 5 21H6C6.55228 21 7 20.5523 7 20V4C7 3.44772 6.55228 3 6 3H5ZM10 3C9.44772 3 9 3.44772 9 4V20C9 20.5523 9.44772 21 10 21H11C11.5523 21 12 20.5523 12 20V4C12 3.44772 11.5523 3 11 3H10Z" fill="#F8991C"/>
<rect opacity="0.3" x="13.4772" y="3.92419" width="3" height="18" rx="1" transform="rotate(-19 13.4772 3.92419)" fill="#F8991C"/>
</svg>
