<svg width="24" height="24" viewBox="0 0 24 24" fill="none" xmlns="http://www.w3.org/2000/svg">
<path d="M7.62302 5.30263C8.08509 5.00012 8.7049 5.12946 9.00742 5.59152C9.30993 6.05359 9.18059 6.6734 8.71852 6.97592C7.03469 8.07832 6 9.95031 6 12C6 15.3137 8.68629 18 12 18C15.3137 18 18 15.3137 18 12C18 9.9955 17.0108 8.1597 15.3876 7.047C14.932 6.73474 14.8159 6.11232 15.1281 5.65678C15.4404 5.20125 16.0628 5.0851 16.5184 5.39736C18.68 6.87912 20 9.32887 20 12C20 16.4183 16.4183 20 12 20C7.58172 20 4 16.4183 4 12C4 9.26853 5.38057 6.77077 7.62302 5.30263Z" fill="#F8991C"/>
<rect opacity="0.3" x="11" y="3" width="2" height="10" rx="1" fill="#F8991C"/>
</svg>
