<svg width="24" height="24" viewBox="0 0 24 24" fill="none" xmlns="http://www.w3.org/2000/svg">
<path fill-rule="evenodd" clip-rule="evenodd" d="M6.20744 12.5852C6.07589 12.8483 6.06685 13.1559 6.18272 13.4263L8.87015 19.697C8.94894 19.8808 9.12971 20 9.32972 20H14.6703C14.8703 20 15.0511 19.8808 15.1299 19.697L17.8173 13.4263C17.9332 13.1559 17.9242 12.8483 17.7926 12.5852L13 3V11C13 11.0862 12.9891 11.1699 12.9686 11.2498C13.5837 11.5909 14 12.2468 14 13C14 14.1046 13.1046 15 12 15C10.8955 15 10 14.1046 10 13C10 12.2468 10.4164 11.5909 11.0315 11.2498C11.0109 11.1699 11 11.0862 11 11V3L6.20744 12.5852Z" fill="#F8991C"/>
<path opacity="0.3" d="M9 22C9 21.4477 9.44772 21 10 21H14C14.5523 21 15 21.4477 15 22V23H9V22Z" fill="#F8991C"/>
</svg>
