<svg width="30" height="30" viewBox="0 0 30 30" fill="none" xmlns="http://www.w3.org/2000/svg">
<path fill-rule="evenodd" clip-rule="evenodd" d="M9.11073 7.49997C8.9115 7.49997 8.75 7.66147 8.75 7.8607V22.1392C8.75 22.3385 8.9115 22.5 9.11073 22.5H13.3893C13.5885 22.5 13.75 22.3385 13.75 22.1392V7.8607C13.75 7.66147 13.5885 7.49997 13.3893 7.49997H9.11073ZM16.6107 7.49998C16.4115 7.49998 16.25 7.66148 16.25 7.86071V22.1392C16.25 22.3385 16.4115 22.5 16.6107 22.5H20.8893C21.0885 22.5 21.25 22.3385 21.25 22.1392V7.86071C21.25 7.66148 21.0885 7.49998 20.8893 7.49998H16.6107Z" fill="white"/>
</svg>
