<svg width="24" height="24" viewBox="0 0 24 24" fill="none" xmlns="http://www.w3.org/2000/svg">
<path opacity="0.3" fill-rule="evenodd" clip-rule="evenodd" d="M19 16H21V12C21 7.02944 16.9706 3 12 3C7.02944 3 3 7.02944 3 12V16H5V12C5 8.13401 8.13401 5 12 5C15.866 5 19 8.13401 19 12V16Z" fill="#F8991C"/>
<path fill-rule="evenodd" clip-rule="evenodd" d="M5 14C3.89543 14 3 14.8954 3 16V19C3 20.1046 3.89543 21 5 21H6C7.10457 21 8 20.1046 8 19V16C8 14.8954 7.10457 14 6 14H5ZM18 14C16.8954 14 16 14.8954 16 16V19C16 20.1046 16.8954 21 18 21H19C20.1046 21 21 20.1046 21 19V16C21 14.8954 20.1046 14 19 14H18Z" fill="#F8991C"/>
</svg>
