<svg width="20" height="20" viewBox="0 0 20 20" fill="none" xmlns="http://www.w3.org/2000/svg">
<path fill-rule="evenodd" clip-rule="evenodd" d="M10.798 7.72131C10.4681 7.9662 9.99999 7.7307 9.99999 7.31982V6.66667H6.66666C4.82571 6.66667 3.33332 8.15905 3.33332 10V10.8333C3.33332 12.214 4.45261 13.3333 5.83332 13.3333V15C3.53214 15 1.66666 13.1345 1.66666 10.8333V10C1.66666 7.23857 3.90523 5 6.66666 5H9.99999V4.10625C9.99999 3.69468 10.4695 3.45937 10.7992 3.70566L12.9572 5.3175C13.2254 5.51784 13.2248 5.92005 12.956 6.11958L10.798 7.72131Z" fill="white"/>
<path opacity="0.3" fill-rule="evenodd" clip-rule="evenodd" d="M14.1667 5V6.66667C15.5474 6.66667 16.6667 7.78595 16.6667 9.16667V10C16.6667 11.8409 15.1743 13.3333 13.3333 13.3333H10.0486V12.4396C10.0486 12.028 9.57912 11.7927 9.24938 12.039L7.09139 13.6508C6.82316 13.8512 6.82377 14.2534 7.09259 14.4529L9.25058 16.0546C9.58051 16.2995 10.0486 16.064 10.0486 15.6532V15H13.3333C16.0947 15 18.3333 12.7614 18.3333 10V9.16667C18.3333 6.86548 16.4678 5 14.1667 5Z" fill="white"/>
</svg>
