<svg width="24" height="24" viewBox="0 0 24 24" fill="none" xmlns="http://www.w3.org/2000/svg">
<path fill-rule="evenodd" clip-rule="evenodd" d="M15.9497 3.80762L13.0246 6.73275C12.2436 7.5138 12.2436 8.78013 13.0246 9.56118L14.4388 10.9754C15.2199 11.7564 16.4862 11.7564 17.2672 10.9754L20.1924 8.05026C20.7341 10.0448 20.2296 12.2557 18.6746 13.8107C16.8453 15.64 14.1086 16.0155 11.884 14.9444L6.75735 20.0711C5.9763 20.8521 4.70997 20.8521 3.92893 20.0711C3.14788 19.29 3.14788 18.0237 3.92893 17.2426L9.05556 12.116C7.98446 9.89145 8.36004 7.15467 10.1893 5.32545C11.7443 3.77041 13.9552 3.26589 15.9497 3.80762Z" fill="#F8991C"/>
<path opacity="0.3" fill-rule="evenodd" clip-rule="evenodd" d="M16.6568 5.92894L18.0711 7.34315C18.4616 7.73368 18.4616 8.36684 18.0711 8.75737L16.6914 10.137C16.3009 10.5276 15.6677 10.5276 15.2772 10.137L13.863 8.72283C13.4724 8.33231 13.4724 7.69914 13.863 7.30862L15.2426 5.92894C15.6332 5.53842 16.2663 5.53842 16.6568 5.92894Z" fill="#F8991C"/>
</svg>
