<svg width="20" height="20" viewBox="0 0 20 20" fill="none" xmlns="http://www.w3.org/2000/svg">
<path opacity="0.3" fill-rule="evenodd" clip-rule="evenodd" d="M13.1565 16.2821C13.3061 16.5931 13.6796 16.724 13.9906 16.5744C16.4968 15.3688 18.125 12.8309 18.125 10C18.125 7.19623 16.5279 4.67849 14.0587 3.45881C13.7492 3.30595 13.3744 3.43291 13.2215 3.74239C13.0686 4.05188 13.1956 4.42668 13.5051 4.57955C15.5519 5.59053 16.875 7.67645 16.875 10C16.875 12.346 15.526 14.4487 13.4488 15.4479C13.1377 15.5976 13.0069 15.971 13.1565 16.2821ZM12.7458 13.2164C12.9142 13.5177 13.295 13.6253 13.5963 13.4569C14.8385 12.7622 15.625 11.4498 15.625 10C15.625 8.561 14.8501 7.25675 13.6224 6.55794C13.3225 6.38718 12.9408 6.49194 12.7701 6.79193C12.5993 7.09191 12.7041 7.47352 13.0041 7.64428C13.8451 8.123 14.375 9.01489 14.375 10C14.375 10.9925 13.8371 11.89 12.9862 12.3659C12.6849 12.5343 12.5773 12.9151 12.7458 13.2164Z" fill="white"/>
<path fill-rule="evenodd" clip-rule="evenodd" d="M10 3.37091C10 3.04954 9.61146 2.88859 9.38422 3.11584L5.83335 6.6667H2.38815C1.9897 6.6667 1.66669 6.98971 1.66669 7.38816V12.6119C1.66669 13.0104 1.9897 13.3334 2.38815 13.3334H5.83335L9.38422 16.8842C9.61146 17.1115 10 16.9505 10 16.6291V3.37091Z" fill="white"/>
</svg>
